# Blender v3.1.2 OBJ File: ''
# www.blender.org
o Sphere
v 0.000000 -0.000000 -1.000000
v 0.000000 -0.707107 -0.707107
v 0.707107 0.707107 0.000000
v 1.000000 -0.000000 0.000000
v 0.707107 -0.707107 0.000000
v -0.000000 1.000000 0.000000
v -0.000000 0.707107 0.707107
v -0.000000 -0.000000 1.000000
v -0.000000 -0.707107 0.707107
v 0.000000 -1.000000 0.000000
v -0.707107 0.707106 -0.000000
v -1.000000 -0.000000 -0.000000
v -0.707107 -0.707107 -0.000000
v 0.000000 0.707106 -0.707107
vn -0.3574 0.8629 0.3574
vn -0.6786 -0.2811 0.6786
vn -0.6786 0.2811 0.6786
vn -0.3574 -0.8629 0.3574
vn -0.6786 0.2811 -0.6786
vn -0.3574 -0.8629 -0.3574
vn -0.3574 0.8629 -0.3574
vn -0.6786 -0.2811 -0.6786
vn 0.6786 -0.2811 -0.6786
vn 0.6786 0.2811 -0.6786
vn 0.3574 -0.8629 -0.3574
vn 0.3574 0.8629 -0.3574
vn 0.3574 0.8629 0.3574
vn 0.6786 -0.2811 0.6786
vn 0.6786 0.2811 0.6786
vn 0.3574 -0.8629 0.3574
s off
f 10//1 5//1 2//1
f 1//2 4//2 3//2 14//2
f 2//3 5//3 4//3 1//3
f 14//4 3//4 6//4
f 5//5 9//5 8//5 4//5
f 3//6 7//6 6//6
f 10//7 9//7 5//7
f 4//8 8//8 7//8 3//8
f 8//9 12//9 11//9 7//9
f 9//10 13//10 12//10 8//10
f 7//11 11//11 6//11
f 10//12 13//12 9//12
f 10//13 2//13 13//13
f 12//14 1//14 14//14 11//14
f 13//15 2//15 1//15 12//15
f 11//16 14//16 6//16
